<?xml version="1.0" standalone="no"?>
<!DOCTYPE svg PUBLIC "-//W3C//DTD SVG 20010904//EN"
 "http://www.w3.org/TR/2001/REC-SVG-20010904/DTD/svg10.dtd">
<svg version="1.0" xmlns="http://www.w3.org/2000/svg"
 width="600.000000pt" height="600.000000pt" viewBox="0 0 600.000000 600.000000"
 preserveAspectRatio="xMidYMid meet">
<metadata>
Created by potrace 1.14, written by Peter Selinger 2001-2017
</metadata>
<g transform="translate(0.000000,600.000000) scale(0.100000,-0.100000)"
fill="#000000" stroke="none">
<path d="M2769 5996 c-2 -2 -40 -7 -84 -10 -44 -4 -87 -9 -95 -11 -8 -2 -35
-7 -60 -10 -68 -9 -188 -34 -250 -51 -187 -54 -383 -215 -485 -399 -52 -94
-98 -231 -110 -327 -4 -28 -9 -60 -11 -72 -6 -28 -5 -241 1 -291 9 -73 15
-109 30 -180 120 -579 580 -1181 1405 -1839 74 -60 144 -115 154 -123 265
-212 827 -594 1071 -728 477 -262 861 -387 1165 -380 167 4 159 -1 220 128 58
125 57 124 93 222 105 284 166 567 182 843 5 86 3 88 -35 57 -47 -39 -193 -58
-310 -40 -101 15 -353 83 -425 115 -11 5 -38 14 -60 21 -70 20 -257 99 -350
147 -413 212 -966 628 -1385 1043 -420 414 -662 843 -662 1170 0 267 152 463
420 540 66 19 80 22 192 34 68 8 271 9 325 1 22 -3 65 -8 95 -11 53 -6 219
-38 270 -51 60 -16 4 9 -101 45 -182 63 -438 121 -599 136 -36 4 -76 9 -90 11
-31 6 -506 15 -511 10z"/>
<path d="M1110 5319 c-314 -257 -590 -590 -749 -903 -62 -123 -70 -142 -99
-236 -55 -178 -81 -367 -83 -600 -1 -143 8 -221 43 -370 14 -61 124 -390 147
-443 10 -23 34 -76 52 -117 306 -692 875 -1320 1639 -1806 374 -238 1062 -562
1272 -599 17 -3 35 -8 40 -11 5 -3 20 -8 35 -10 15 -3 58 -12 95 -20 183 -38
487 -41 628 -5 55 14 247 104 340 159 19 12 54 31 78 43 23 13 42 26 42 31 0
4 4 8 10 8 10 0 127 79 180 121 133 106 177 144 171 146 -3 1 -64 4 -136 7
-71 3 -143 7 -160 11 -16 3 -55 10 -85 16 -222 43 -567 179 -855 339 -111 61
-360 213 -381 231 -11 11 -24 19 -28 19 -4 0 -37 21 -74 47 -37 25 -89 62
-117 81 -293 204 -648 496 -1030 847 -237 218 -537 538 -700 749 -16 22 -39
51 -51 65 -21 26 -217 325 -243 371 -117 204 -225 476 -257 645 -2 11 -8 43
-13 70 -20 101 -29 314 -17 385 3 14 7 48 11 75 13 103 62 260 117 370 33 66
124 205 160 245 54 59 61 74 18 39z"/>
<path d="M4994 5175 c3 -83 -7 -134 -36 -193 -26 -51 -95 -118 -145 -138 -101
-43 -313 -1 -628 123 -77 30 -159 64 -182 74 -66 30 -119 -4 -90 -57 9 -16
122 -158 152 -190 291 -314 551 -510 873 -658 181 -83 344 -130 444 -129 185
1 305 182 254 381 -20 81 -49 136 -145 279 -111 165 -194 266 -358 433 l-142
145 3 -70z"/>
<path d="M14 2665 c8 -85 33 -237 53 -325 22 -94 24 -104 27 -115 39 -145 88
-284 141 -409 46 -108 151 -315 185 -366 9 -14 47 -71 83 -127 37 -57 73 -111
81 -120 8 -10 45 -56 82 -103 93 -118 348 -369 474 -466 208 -161 423 -290
649 -391 150 -66 414 -155 549 -183 108 -23 189 -34 157 -22 -87 34 -363 169
-490 240 -125 68 -480 302 -505 332 -3 3 -25 21 -50 40 -327 249 -698 654
-934 1020 -85 131 -93 144 -134 216 -130 226 -248 491 -334 749 -16 50 -32 92
-35 95 -3 3 -2 -26 1 -65z"/>
</g>
</svg>
