<?xml version="1.0" standalone="no"?>
<!DOCTYPE svg PUBLIC "-//W3C//DTD SVG 20010904//EN"
 "http://www.w3.org/TR/2001/REC-SVG-20010904/DTD/svg10.dtd">
<svg version="1.0" xmlns="http://www.w3.org/2000/svg"
 width="600.000000pt" height="600.000000pt" viewBox="0 0 600.000000 600.000000"
 preserveAspectRatio="xMidYMid meet">
<g transform="translate(0.000000,600.000000) scale(0.100000,-0.100000)"
stroke="none">
<path d="M2717 5989 c-230 -20 -445 -68 -553 -122 -140 -71 -277 -197 -354
-326 -53 -89 -106 -238 -126 -354 -22 -126 -14 -382 16 -522 158 -740 788
-1455 2065 -2347 705 -493 1275 -741 1705 -742 194 -1 189 -4 243 112 104 220
183 458 231 692 25 125 56 362 56 433 l0 37 -57 -32 c-58 -33 -59 -33 -193
-32 -157 0 -217 13 -484 100 -200 66 -341 124 -483 200 -403 214 -826 529
-1290 962 -337 314 -600 695 -688 997 -32 109 -44 279 -26 368 32 152 138 285
283 356 126 62 215 82 405 88 178 6 310 -5 499 -42 65 -12 120 -22 122 -20 7
7 -209 77 -334 108 -336 85 -708 116 -1037 86z"/>
<path d="M1060 5278 c-124 -104 -302 -287 -403 -413 -363 -453 -491 -815 -474
-1344 7 -208 20 -277 107 -534 347 -1027 1134 -1862 2305 -2441 203 -101 495
-227 620 -268 292 -96 588 -129 834 -92 87 13 125 25 215 66 212 99 391 209
564 347 142 114 141 111 40 111 -630 0 -1592 527 -2588 1418 -479 429 -819
799 -1049 1142 -280 417 -414 771 -428 1130 -14 339 90 644 304 898 25 28 43
52 41 52 -2 0 -41 -32 -88 -72z"/>
<path d="M4991 5158 c1 -56 -5 -104 -16 -137 -20 -62 -90 -142 -148 -170 -113
-55 -367 -2 -737 154 -138 58 -164 61 -179 22 -11 -29 -1 -47 97 -165 177
-214 457 -459 675 -591 244 -147 536 -261 677 -264 210 -5 338 183 272 400
-51 165 -285 485 -540 737 l-101 100 0 -86z"/>
<path d="M10 2710 c0 -19 9 -93 19 -165 143 -964 750 -1798 1631 -2241 155
-77 263 -121 441 -179 127 -40 355 -95 397 -95 9 0 -37 24 -103 54 -923 409
-1660 1102 -2104 1976 -109 215 -158 330 -228 530 -37 110 -53 144 -53 120z"/>
</g>
</svg>
